<svg xmlns="http://www.w3.org/2000/svg" viewBox="0 0 96 96" width="96" height="96">
  <defs>
    <linearGradient id="bkBars" x1="25" y1="0" x2="71" y2="0" gradientUnits="userSpaceOnUse">
      <stop offset="0" stop-color="#4F8CFF"/><stop offset="1" stop-color="#8A55FF"/>
    </linearGradient>
    <linearGradient id="bkBeam" x1="12" y1="0" x2="84" y2="0" gradientUnits="userSpaceOnUse">
      <stop offset="0" stop-color="#4F8CFF" stop-opacity="0"/>
      <stop offset="0.17" stop-color="#6BB0FF"/>
      <stop offset="0.5" stop-color="#EAF0FF"/>
      <stop offset="0.83" stop-color="#9A63FF"/>
      <stop offset="1" stop-color="#8A55FF" stop-opacity="0"/>
    </linearGradient>
    <filter id="bkGlow" x="-60%" y="-800%" width="220%" height="1700%">
      <feGaussianBlur stdDeviation="3.4" result="big"/>
      <feGaussianBlur in="SourceGraphic" stdDeviation="1.1" result="small"/>
      <feMerge><feMergeNode in="big"/><feMergeNode in="small"/><feMergeNode in="SourceGraphic"/></feMerge>
    </filter>
  </defs>
  <rect x="0" y="0" width="96" height="96" rx="23" fill="#0A0A0F"/>
  <g fill="none" stroke="#FFFFFF" stroke-width="3" stroke-linecap="round" stroke-linejoin="round">
    <path d="M16 29 V16 H29"/><path d="M80 29 V16 H67"/><path d="M16 67 V80 H29"/><path d="M80 67 V80 H67"/>
  </g>
  <g fill="url(#bkBars)">
    <rect x="25.0" y="26" width="4.0" height="46" rx="1.4"/><rect x="31.4" y="26" width="2.0" height="46" rx="1.0"/>
    <rect x="35.8" y="26" width="3.0" height="46" rx="1.3"/><rect x="41.2" y="26" width="2.0" height="46" rx="1.0"/>
    <rect x="45.6" y="26" width="4.5" height="46" rx="1.5"/><rect x="52.5" y="26" width="2.0" height="46" rx="1.0"/>
    <rect x="56.9" y="26" width="3.0" height="46" rx="1.3"/><rect x="62.3" y="26" width="2.0" height="46" rx="1.0"/>
    <rect x="66.7" y="26" width="4.0" height="46" rx="1.4"/>
  </g>
  <g filter="url(#bkGlow)"><rect x="12" y="46.4" width="72" height="3.0" rx="1.5" fill="url(#bkBeam)"/></g>
</svg>
